<?xml version="1.0" encoding="UTF-8" standalone="no"?>
<!DOCTYPE svg PUBLIC "-//W3C//DTD SVG 1.1//EN"
 "http://www.w3.org/Graphics/SVG/1.1/DTD/svg11.dtd">
<!-- Generated by graphviz version 8.0.5 (0)
 -->
<!-- Pages: 1 -->
<svg width="87pt" height="142pt"
 viewBox="0.00 0.00 86.84 142.09" xmlns="http://www.w3.org/2000/svg" xmlns:xlink="http://www.w3.org/1999/xlink">
<g id="graph0" class="graph" transform="scale(1 1) rotate(0) translate(4 138.09)">
<polygon fill="white" stroke="none" points="-4,4 -4,-138.09 82.84,-138.09 82.84,4 -4,4"/>
<!-- A -->
<g id="node1" class="node">
<title>A</title>
<polygon fill="lightgray" stroke="black" points="30.8,-134.09 8.05,-134.09 8.05,-114.84 30.8,-114.84 30.8,-134.09"/>
<text text-anchor="middle" x="19.42" y="-121.54" font-family="Times,serif" font-size="9.00">A</text>
</g>
<!-- A XOR B -->
<g id="node3" class="node">
<title>A XOR B</title>
<ellipse fill="lightblue" stroke="black" cx="39.42" cy="-39.42" rx="39.42" ry="39.42"/>
<text text-anchor="middle" x="39.42" y="-36.5" font-family="Times,serif" font-size="9.00">A XOR B</text>
</g>
<!-- A&#45;&gt;A XOR B -->
<g id="edge1" class="edge">
<title>A&#45;&gt;A XOR B</title>
<path fill="none" stroke="green" stroke-width="0.25" d="M21.56,-114.58C23.18,-107.85 25.55,-98.04 28.03,-87.74"/>
<polygon fill="green" stroke="green" stroke-width="0.25" points="31.38,-88.76 30.32,-78.22 24.58,-87.12 31.38,-88.76"/>
</g>
<!-- B -->
<g id="node2" class="node">
<title>B</title>
<polygon fill="lightgray" stroke="black" points="71.8,-134.09 49.05,-134.09 49.05,-114.84 71.8,-114.84 71.8,-134.09"/>
<text text-anchor="middle" x="60.42" y="-121.54" font-family="Times,serif" font-size="9.00">B</text>
</g>
<!-- B&#45;&gt;A XOR B -->
<g id="edge2" class="edge">
<title>B&#45;&gt;A XOR B</title>
<path fill="none" stroke="green" stroke-width="0.29" d="M58.17,-114.58C56.46,-107.79 53.94,-97.85 51.31,-87.44"/>
<polygon fill="green" stroke="green" stroke-width="0.29" points="54.73,-86.67 48.88,-77.83 47.94,-88.38 54.73,-86.67"/>
</g>
</g>
</svg>
