<?xml version="1.0" encoding="UTF-8" standalone="no"?>
<!DOCTYPE svg PUBLIC "-//W3C//DTD SVG 1.1//EN"
 "http://www.w3.org/Graphics/SVG/1.1/DTD/svg11.dtd">
<!-- Generated by graphviz version 8.0.5 (0)
 -->
<!-- Pages: 1 -->
<svg width="146pt" height="235pt"
 viewBox="0.00 0.00 145.71 234.66" xmlns="http://www.w3.org/2000/svg" xmlns:xlink="http://www.w3.org/1999/xlink">
<g id="graph0" class="graph" transform="scale(1 1) rotate(0) translate(4 230.66)">
<polygon fill="white" stroke="none" points="-4,4 -4,-230.66 141.71,-230.66 141.71,4 -4,4"/>
<!-- A -->
<g id="node1" class="node">
<title>A</title>
<polygon fill="lightgray" stroke="black" points="50.8,-226.66 28.05,-226.66 28.05,-207.41 50.8,-207.41 50.8,-226.66"/>
<text text-anchor="middle" x="39.42" y="-214.11" font-family="Times,serif" font-size="9.00">A</text>
</g>
<!-- A XOR B -->
<g id="node3" class="node">
<title>A XOR B</title>
<ellipse fill="lightblue" stroke="black" cx="39.42" cy="-39.42" rx="39.42" ry="39.42"/>
<text text-anchor="middle" x="39.42" y="-36.5" font-family="Times,serif" font-size="9.00">A XOR B</text>
</g>
<!-- A&#45;&gt;A XOR B -->
<g id="edge1" class="edge">
<title>A&#45;&gt;A XOR B</title>
<path fill="none" stroke="green" stroke-width="0.86" stroke-dasharray="1,5" d="M30.09,-207.14C22.06,-198.79 11.07,-185.5 6.42,-171.41 -3.01,-142.8 5.33,-109.92 15.99,-84.26"/>
<polygon fill="green" stroke="green" stroke-width="0.86" points="19.48,-86.02 20.31,-75.45 13.07,-83.19 19.48,-86.02"/>
</g>
<!-- 3730 -->
<g id="node4" class="node">
<title>3730</title>
<ellipse fill="white" stroke="black" cx="109.42" cy="-143.13" rx="28.28" ry="28.28"/>
<text text-anchor="middle" x="109.42" y="-140.2" font-family="Times,serif" font-size="9.00">3730</text>
</g>
<!-- A&#45;&gt;3730 -->
<g id="edge5" class="edge">
<title>A&#45;&gt;3730</title>
<path fill="none" stroke="green" stroke-width="0.51" d="M48.29,-206.93C57.1,-197.87 71.06,-183.54 83.41,-170.85"/>
<polygon fill="green" stroke="green" stroke-width="0.51" points="85.6,-173.62 90.06,-164.01 80.58,-168.74 85.6,-173.62"/>
</g>
<!-- 628 -->
<g id="node5" class="node">
<title>628</title>
<ellipse fill="white" stroke="black" cx="39.42" cy="-143.13" rx="24.04" ry="24.04"/>
<text text-anchor="middle" x="39.42" y="-140.2" font-family="Times,serif" font-size="9.00">628</text>
</g>
<!-- A&#45;&gt;628 -->
<g id="edge4" class="edge">
<title>A&#45;&gt;628</title>
<path fill="none" stroke="red" stroke-width="0.57" d="M39.42,-206.93C39.42,-199.41 39.42,-188.24 39.42,-177.4"/>
<polygon fill="red" stroke="red" stroke-width="0.57" points="42.92,-177.65 39.42,-167.65 35.92,-177.65 42.92,-177.65"/>
</g>
<!-- B -->
<g id="node2" class="node">
<title>B</title>
<polygon fill="lightgray" stroke="black" points="105.8,-226.66 83.05,-226.66 83.05,-207.41 105.8,-207.41 105.8,-226.66"/>
<text text-anchor="middle" x="94.42" y="-214.11" font-family="Times,serif" font-size="9.00">B</text>
</g>
<!-- B&#45;&gt;3730 -->
<g id="edge7" class="edge">
<title>B&#45;&gt;3730</title>
<path fill="none" stroke="red" stroke-width="0.37" d="M96.32,-206.93C97.73,-200.18 99.75,-190.51 101.78,-180.76"/>
<polygon fill="red" stroke="red" stroke-width="0.37" points="105.18,-181.61 103.79,-171.11 98.33,-180.18 105.18,-181.61"/>
</g>
<!-- B&#45;&gt;628 -->
<g id="edge2" class="edge">
<title>B&#45;&gt;628</title>
<path fill="none" stroke="green" stroke-width="0.56" d="M87.46,-206.93C80.47,-197.79 69.36,-183.27 59.59,-170.5"/>
<polygon fill="green" stroke="green" stroke-width="0.56" points="62.59,-168.65 53.73,-162.84 57.03,-172.9 62.59,-168.65"/>
</g>
<!-- 3730&#45;&gt;A XOR B -->
<g id="edge6" class="edge">
<title>3730&#45;&gt;A XOR B</title>
<path fill="none" stroke="green" stroke-width="1.01" d="M93.71,-119.3C85.98,-108.07 76.43,-94.19 67.5,-81.22"/>
<polygon fill="green" stroke="green" stroke-width="1.01" points="70,-79.68 61.45,-73.42 64.23,-83.65 70,-79.68"/>
</g>
<!-- 628&#45;&gt;A XOR B -->
<g id="edge3" class="edge">
<title>628&#45;&gt;A XOR B</title>
<path fill="none" stroke="green" stroke-width="0.92" d="M39.42,-118.79C39.42,-110.18 39.42,-100.06 39.42,-90"/>
<polygon fill="green" stroke="green" stroke-width="0.92" points="42.92,-90.19 39.42,-80.19 35.92,-90.19 42.92,-90.19"/>
</g>
</g>
</svg>
